<svg width="70" height="70" viewBox="0 0 70 70" fill="none" xmlns="http://www.w3.org/2000/svg">
<path d="M60.1223 32.1563C60.1018 30.3106 60.0949 28.4512 60.0881 26.5987H54.5647C54.5441 28.4444 54.5305 30.2969 54.5168 32.1563C52.6574 32.1632 50.8117 32.1768 48.966 32.1973V37.7276C50.8117 37.7481 52.6711 37.7618 54.5168 37.7823C54.5373 39.628 54.5373 41.4805 54.551 43.3262H60.0813C60.0881 41.4805 60.1018 39.628 60.1154 37.7686C61.9748 37.7481 63.8205 37.7413 65.6662 37.7208V32.1905C63.8273 32.1768 61.968 32.1768 60.1223 32.1563ZM23.8918 32.1837C23.885 34.3917 23.8918 36.6065 23.8986 38.8145C27.6037 38.9376 31.3156 38.8829 35.0207 38.9376C33.3869 47.1612 22.2102 49.8272 16.2971 44.4542C10.2131 39.7442 10.5002 29.4151 16.8234 25.0401C21.2463 21.5128 27.5285 22.3809 31.9514 25.4366C33.6877 23.8301 35.3146 22.1075 36.8801 20.3301C33.2023 17.3975 28.6906 15.3057 23.8918 15.5245C13.8703 15.1895 4.66231 23.9669 4.49824 33.9952C3.85567 42.1915 9.24238 50.2237 16.8439 53.1221C24.4182 56.0411 34.132 54.0518 38.9719 47.2432C42.1643 42.9434 42.8547 37.4063 42.4787 32.2042C36.2785 32.1563 30.0852 32.1632 23.8918 32.1837Z" fill="white"/>
</svg>
