<svg width="70" height="70" viewBox="0 0 70 70" fill="none" xmlns="http://www.w3.org/2000/svg">
<path fill-rule="evenodd" clip-rule="evenodd" d="M21.7728 3.10949C25.194 2.95199 26.2848 2.91699 34.9998 2.91699C43.7148 2.91699 44.8057 2.95491 48.224 3.10949C51.6423 3.26408 53.9757 3.80949 56.0173 4.59991C58.1553 5.40783 60.0948 6.67074 61.699 8.30407C63.3323 9.90532 64.5923 11.842 65.3973 13.9828C66.1907 16.0245 66.7332 18.3578 66.8907 21.7703C67.0482 25.1974 67.0832 26.2882 67.0832 35.0003C67.0832 43.7153 67.0452 44.8062 66.8907 48.2274C66.7361 51.6399 66.1907 53.9732 65.3973 56.0149C64.5923 58.156 63.3302 60.0959 61.699 61.6995C60.0948 63.3328 58.1553 64.5928 56.0173 65.3978C53.9757 66.1912 51.6423 66.7337 48.2298 66.8912C44.8057 67.0487 43.7148 67.0837 34.9998 67.0837C26.2848 67.0837 25.194 67.0457 21.7728 66.8912C18.3603 66.7366 16.0269 66.1912 13.9853 65.3978C11.8442 64.5927 9.90431 63.3307 8.30067 61.6995C6.66845 60.0973 5.40534 58.1583 4.59942 56.0178C3.809 53.9762 3.2665 51.6428 3.109 48.2303C2.9515 44.8032 2.9165 43.7124 2.9165 35.0003C2.9165 26.2853 2.95442 25.1945 3.109 21.7762C3.26359 18.3578 3.809 16.0245 4.59942 13.9828C5.40653 11.8422 6.6706 9.90332 8.30359 8.30116C9.90495 6.66929 11.8429 5.4062 13.9823 4.59991C16.024 3.80949 18.3573 3.26699 21.7698 3.10949H21.7728ZM47.9644 8.88449C44.5811 8.72991 43.5661 8.69783 34.9998 8.69783C26.4336 8.69783 25.4186 8.72991 22.0353 8.88449C18.9057 9.02741 17.2082 9.54949 16.0765 9.98991C14.5803 10.5732 13.5098 11.2645 12.3869 12.3874C11.3225 13.423 10.5033 14.6836 9.98942 16.077C9.549 17.2087 9.02692 18.9062 8.884 22.0357C8.72942 25.4191 8.69734 26.4341 8.69734 35.0003C8.69734 43.5666 8.72942 44.5816 8.884 47.9649C9.02692 51.0945 9.549 52.792 9.98942 53.9237C10.5028 55.3149 11.3223 56.5778 12.3869 57.6132C13.4223 58.6778 14.6853 59.4974 16.0765 60.0107C17.2082 60.4512 18.9057 60.9732 22.0353 61.1162C25.4186 61.2707 26.4307 61.3028 34.9998 61.3028C43.569 61.3028 44.5811 61.2707 47.9644 61.1162C51.094 60.9732 52.7915 60.4512 53.9232 60.0107C55.4194 59.4274 56.4898 58.7362 57.6128 57.6132C58.6773 56.5778 59.4969 55.3149 60.0103 53.9237C60.4507 52.792 60.9728 51.0945 61.1157 47.9649C61.2703 44.5816 61.3023 43.5666 61.3023 35.0003C61.3023 26.4341 61.2703 25.4191 61.1157 22.0357C60.9728 18.9062 60.4507 17.2087 60.0103 16.077C59.4269 14.5807 58.7357 13.5103 57.6128 12.3874C56.5771 11.323 55.3165 10.5039 53.9232 9.98991C52.7915 9.54949 51.094 9.02741 47.9644 8.88449ZM30.9019 44.8907C33.1905 45.8434 35.7389 45.972 38.1117 45.2545C40.4846 44.537 42.5347 43.018 43.912 40.9569C45.2893 38.8957 45.9083 36.4204 45.6633 33.9535C45.4183 31.4867 44.3244 29.1815 42.5686 27.4316C41.4493 26.313 40.0959 25.4564 38.6058 24.9237C37.1157 24.3909 35.5261 24.1951 33.9513 24.3505C32.3765 24.5058 30.8557 25.0083 29.4984 25.822C28.1412 26.6356 26.9812 27.74 26.102 29.0557C25.2228 30.3715 24.6462 31.8657 24.4138 33.431C24.1815 34.9963 24.299 36.5937 24.7581 38.1081C25.2171 39.6225 26.0062 41.0163 27.0686 42.1891C28.131 43.3619 29.4402 44.2846 30.9019 44.8907ZM23.339 23.3395C24.8703 21.8082 26.6883 20.5935 28.689 19.7647C30.6898 18.936 32.8342 18.5094 34.9998 18.5094C37.1655 18.5094 39.3099 18.936 41.3106 19.7647C43.3114 20.5935 45.1293 21.8082 46.6607 23.3395C48.192 24.8708 49.4067 26.6888 50.2354 28.6895C51.0642 30.6903 51.4907 32.8347 51.4907 35.0003C51.4907 37.1659 51.0642 39.3104 50.2354 41.3111C49.4067 43.3119 48.192 45.1298 46.6607 46.6612C43.568 49.7538 39.3735 51.4912 34.9998 51.4912C30.6262 51.4912 26.4316 49.7538 23.339 46.6612C20.2464 43.5685 18.5089 39.374 18.5089 35.0003C18.5089 30.6267 20.2464 26.4321 23.339 23.3395ZM55.1482 20.9653C55.5276 20.6074 55.8314 20.1769 56.0416 19.6994C56.2517 19.2219 56.3639 18.7072 56.3715 18.1855C56.3791 17.6639 56.2819 17.1461 56.0858 16.6627C55.8897 16.1793 55.5986 15.7401 55.2297 15.3713C54.8608 15.0024 54.4217 14.7113 53.9383 14.5152C53.4549 14.3191 52.9371 14.2219 52.4155 14.2295C51.8938 14.2371 51.3791 14.3493 50.9016 14.5594C50.4241 14.7696 49.9936 15.0734 49.6357 15.4528C48.9395 16.1908 48.5583 17.1711 48.5731 18.1855C48.5879 19.2 48.9975 20.1687 49.7149 20.8861C50.4323 21.6035 51.401 22.0131 52.4155 22.0279C53.4299 22.0427 54.4102 21.6615 55.1482 20.9653Z" fill="white"/>
</svg>
